<svg xmlns="http://www.w3.org/2000/svg" viewBox="0 0 2000 559.6" style="enable-background:new 0 0 2000 559.6" xml:space="preserve"><path d="m129 408.6 86.4-86.3 86.7 86.2.4.4-87 86.2-86.5-86.5z" style="fill:#1fbcfd"/><path d="M279.6.2 453 0 162.1 290.7l-75.8 75.4L0 279.8 279.6.2zM278 259.8c2.3-3 6.4-1.5 9.5-1.9h165.3L302.1 408.5l-86.7-86.2 62.6-62.5z" style="fill:#44d1fd"/><path d="m696.7 121.5 189 .1v37.2c-49.4 0-98.9-.1-148.4.1-3.8 1.3-2 6-2.4 8.9l.1 100.1c1.3 3.8 6 2 8.9 2.4l126.9-.1v37.2H752.5c-5.9 0-11.8-.4-17.6.6l-.4 141.3c-12.7-.5-25.4 0-38.1-.3V127.5c-.1 0 .3-6 .3-6zm234.8 0h38.8v222.4l-.4 104.7c-12.6-.2-25.3-.3-37.9 0-1-5.2-.6-10.4-.6-15.7.1.1.1-311.4.1-311.4zm379.9 27.6h38.9l.1 65.8c19 .5 38.2-.8 57.2.7-.5 11.8-.1 23.6-.3 35.4-18.9 0-37.9.2-56.8-.1l-.1 131.1c.4 12.1 3 26.8 14.8 33.1 13.5 7.7 30 4.1 42.8-3.3v38.1c-14.1 6.4-30.1 7.1-45.2 5.1-21.3-3.2-41.7-17.7-48.1-38.8-4.3-11.5-3.3-24-3.4-36.1l-.1-127.7-1-1.1c-13.4-.7-26.9.1-40.4-.4.1-12-.5-24 .3-36 13.7-.2 27.4.6 41.1-.4l.2-65.4zm164.5-.1c13 .4 25.9-.1 38.8.3l.9 1c.5 21.6-.7 43.3.5 64.9 18.4-.3 36.9-.1 55.3-.2l.1 35.8c-18.6.7-37.2.3-55.7.2l-.2 133.3c0 11.6 3.3 25.3 14.6 31.1 13.8 7.5 30.5 3.7 43.3-4v38.3c-13.7 6.2-29 7.3-43.8 5.6-19.1-2.5-37.9-13.4-46.8-30.9-4.3-9.2-6.8-19.3-7.2-29.4V251h-40.3l.1-36.2c13.2.4 26.5-.1 39.7.3 1.3-21.9-.2-44.1.7-66.1zm189 67.2c26.9-11.1 57.9-11.4 85.3-2 31.4 10.8 55.8 38.3 64.7 70.1 5.8 17.6 5.6 36.4 4.8 54.7l-184.8.2c1.5 19.7 7.4 39.7 21.1 54.5 19.4 22.7 52.9 31.1 81.1 22.2 19.8-5.8 35.3-21.1 45.4-38.6 11.3 5 22.2 10.8 33.4 15.9-15.3 29.2-43.2 52.4-76 58.7-26.9 5-56.3 5.2-81-8.1-32-15.9-54.1-48.3-60.3-83.1-4.6-26.8-3.1-55.1 6.9-80.4 10.5-28 31.9-52.1 59.4-64.1m14.6 33.5c-22.6 10.4-37.2 33.7-41.7 57.6l141.7-.4c-2.3-15.6-7.8-31.5-19.3-42.9-20.1-21.5-54.4-25.7-80.7-14.3zm224.3 3.1c14.8-35.9 60.3-54.8 96.2-39.8v42c-15.1-5.9-32-9.6-48-4.9-21.8 6.5-37.9 25.9-44.1 47.3-4.2 14.4-2.7 29.5-2.5 44.3-1.7 19.1.8 38.3-.4 57.5 1 16.5-.9 33.1.5 49.6-13.2.6-26.4 0-39.6.4-.8-49.9-.1-99.8-.3-149.8l.3-84.1c12.4.3 24.8 0 37.2.3 1.2 12.4-1.4 24.9.7 37.2zM1026 214.9c13.2.6 26.4-.8 39.5.7l-.2 139.1c-.1 17 2.3 35.6 14.1 48.8 15.2 16.8 40.9 19.9 61.7 13.2 27.7-9.9 47.1-39.3 46-68.7l.4-133.2 39.6.1-.2 233.6c-12.6-.2-25.1 0-37.7-.1l-.1-33.2c-8.1 10.2-16.7 20.6-28.3 27-23.9 15.1-54.1 17-80.9 9.3-17.2-5.2-32.2-17.3-40.9-33.1-10.3-17.4-12.8-37.9-13.4-57.7l.4-145.8z" style="opacity:.54;enable-background:new"/><path d="m215.5 495.1 87-86.2 150.4 150.5c-56.6.1-113.3 0-169.9.1-3.2.7-5.2-2.2-7.3-4.1l-60.2-60.3z" style="fill:#08589c"/></svg>